<svg width="117" height="116" viewBox="0 0 117 116" fill="none" xmlns="http://www.w3.org/2000/svg">
<path d="M56.5101 2.72534C55.5631 2.98659 54.5834 3.62339 54.0282 4.34183L53.6037 4.89698L51.0239 4.99495C47.1704 5.1419 45.456 5.69706 44.1171 7.21558C43.2843 8.16261 42.9741 9.20761 43.0067 11.02C43.0231 12.163 42.9741 12.5386 42.7292 12.8978C42.5169 13.2243 42.4189 13.6652 42.4189 14.4163C42.4189 15.347 42.5169 15.7062 43.268 17.3717C44.0844 19.1678 44.1334 19.38 44.3783 21.617C44.5253 22.9069 44.6885 26.1236 44.7375 28.7524L44.8355 33.5529L45.2927 34.0101C46.2887 35.0061 47.9378 34.6958 49.9135 33.1283C50.1911 32.8997 50.2074 32.8181 49.9789 31.8221L49.7339 30.7608L50.3871 29.2912C51.5953 26.5808 52.4607 25.797 54.5344 25.5031C56.4775 25.2255 57.947 24.3111 58.5838 22.9559C58.9757 22.1558 59.0736 20.5393 58.796 19.7229L58.5838 19.0698L57.751 19.1188C56.7224 19.1841 56.1672 18.9392 55.3345 17.9922C54.3875 16.9472 54.0772 16.0818 53.9303 14.0734C53.8486 13.11 53.669 11.9507 53.5057 11.5099C53.2118 10.7098 53.2118 10.6771 53.5057 10.3506C53.9303 9.87707 54.763 9.68113 56.2978 9.68113C57.9307 9.68113 59.4165 10.024 60.6575 10.6935C61.5065 11.1343 61.6045 11.2486 61.6045 11.7058C61.6045 11.9834 61.4086 12.7998 61.18 13.5019C60.7228 14.9714 60.7554 15.3796 61.4249 16.6206C62.0943 17.8125 62.2903 18.5636 62.2903 19.7882C62.2576 23.0049 63.6618 23.9029 67.5969 23.1518C70.0951 22.6783 71.1238 22.8579 72.5117 24.0336C72.9199 24.3928 73.2954 24.6704 73.3281 24.6377C73.4261 24.5234 72.1688 22.5314 71.6136 21.9272C70.8789 21.0945 70.1931 20.8006 68.6093 20.621C66.5356 20.3761 66.405 20.1311 67.0254 17.7962C67.5153 15.9511 67.5153 14.0897 67.0254 13.159C66.8295 12.7835 66.6662 12.4406 66.6662 12.4079C66.6662 12.3753 67.1234 12.163 67.6949 11.9671C70.389 10.9874 74.1772 8.52183 74.1772 7.72175C74.1772 7.44417 74.0139 7.42785 72.2668 7.42785C71.1565 7.42785 69.344 7.26456 68.0051 7.06863L65.6865 6.72573L64.4946 5.53378C63.1067 4.14589 61.2453 3.13354 59.4002 2.74167C58.0286 2.44776 57.5225 2.44776 56.5101 2.72534ZM44.2967 13.4693C44.2967 13.6815 43.7905 14.4163 43.6272 14.4163C43.4476 14.4163 43.2517 13.3386 43.3823 13.1264C43.5129 12.9304 44.2967 13.2243 44.2967 13.4693ZM51.2851 13.9591C51.579 14.204 51.53 14.8571 51.0728 16.6043C50.4687 18.9555 50.534 19.527 51.6607 21.8456C52.0035 22.5477 52.2975 23.2661 52.2975 23.4294C52.2975 23.9519 51.726 24.3438 50.7463 24.4581C49.5217 24.6214 49.0645 25.0133 48.8196 26.1725L48.6236 27.0543L47.8562 24.4581C46.6642 20.4414 46.5336 19.7393 46.7622 18.7922C46.8602 18.3514 46.9092 17.7309 46.8602 17.4207C46.7785 16.9471 46.8112 16.8655 47.0888 16.8655C47.546 16.8655 47.6276 16.49 47.399 15.6409C47.1704 14.8408 46.5173 14.0571 46.1091 14.1061C45.9621 14.1224 45.6192 14.1224 45.3253 14.1061C44.9008 14.0897 44.8192 14.0407 44.9008 13.8285C44.9824 13.5836 45.309 13.5672 48.0358 13.6815C49.7013 13.7468 51.1708 13.8775 51.2851 13.9591Z" fill="black"/>
<path d="M63.7597 28.4423C62.5515 28.8668 60.9023 30.0261 59.5144 31.463L58.3388 32.6713L56.2815 31.6263C55.1548 31.0548 54.1261 30.5813 54.0118 30.5813C53.7016 30.5813 52.9668 31.6099 52.1831 33.1611C51.0891 35.2838 51.1707 35.7246 53.1301 38.2881C53.6363 38.9413 54.1261 39.6271 54.2241 39.823C54.5997 40.5414 54.8119 43.1539 54.8119 47.1543C54.8119 51.2037 54.8119 51.2527 54.3711 52.5426C53.3424 55.498 50.2237 60.7393 42.8107 71.9731C34.5977 84.4478 31.381 89.5422 28.491 94.7508C25.2906 100.515 23.7885 104.809 24.3599 106.556C24.6049 107.307 25.6499 108.238 26.4826 108.466C27.1847 108.646 27.397 108.597 29.5523 107.666C32.426 106.425 34.6303 106.948 39.3002 110.034C43.2026 112.581 46.2886 113.447 51.5626 113.414C55.612 113.398 57.5387 113.104 65.7518 111.242C69.7848 110.328 71.2544 110.099 72.9035 110.083C74.1608 110.083 74.569 110.165 76.2508 110.736C79.1572 111.732 80.4961 111.944 83.1249 111.863C85.6558 111.781 87.1743 111.373 88.9214 110.312C90.8808 109.12 92.4973 106.997 92.7259 105.315C93.1994 101.952 86.2109 84.1376 77.3774 66.095C73.7199 58.6493 70.8462 53.4243 69.4419 51.6282C68.8378 50.8935 68.8215 50.224 69.344 49.3913C69.5562 49.0647 70.8788 47.3503 72.2994 45.6031C78.4061 38.0269 79.2388 36.9656 79.2388 36.7533C79.2388 36.1655 78.6673 34.9572 78.2265 34.5817C77.8183 34.2388 77.5734 34.1734 76.6426 34.1734C76.0385 34.1734 75.1405 34.2551 74.6506 34.3531L73.7689 34.5327L73.2954 35.692C72.283 38.1575 69.4583 43.7254 68.7235 44.7051C68.4949 45.0153 68.4786 44.9827 68.4622 44.2153C68.4622 41.4068 69.1644 38.1738 70.6012 34.3531C70.9605 33.4224 71.238 32.6549 71.2054 32.6386C68.7398 31.0874 67.8255 30.3527 67.205 29.5036C66.8131 28.9648 66.4212 28.4423 66.3396 28.328C66.0947 28.0341 64.7558 28.0994 63.7597 28.4423Z" fill="black"/>
</svg>
