<svg width="111" height="110" viewBox="0 0 111 110" fill="none" xmlns="http://www.w3.org/2000/svg">
<path d="M33.3538 21.072C21.6276 26.9786 11.8355 31.9792 11.609 32.1883C11.3999 32.4148 11.1386 32.7807 11.0514 33.0072C10.9643 33.2337 10.8946 36.1261 10.8946 39.454C10.8946 47.6954 10.459 47.1553 16.9581 47.1553H21.3489V60.3102V73.465H19.5716C17.6028 73.465 17.0975 73.6567 16.4528 74.615C16.1566 75.0854 16.1217 75.5036 16.1217 79.5111V83.9193H14.3445C12.3757 83.9193 11.8704 84.1109 11.2257 85.0692C10.9121 85.5397 10.8946 85.9927 10.8946 91.7599C10.8946 97.5272 10.9121 97.9802 11.2257 98.4506C11.3999 98.712 11.7832 99.0953 12.0446 99.2695C12.5325 99.5832 13.7173 99.6006 55.4993 99.6006C97.2813 99.6006 98.4661 99.5832 98.954 99.2695C99.2153 99.0953 99.5987 98.712 99.7729 98.4506C100.087 97.9802 100.104 97.5272 100.104 91.7599C100.104 85.9927 100.087 85.5397 99.7729 85.0692C99.1282 84.1109 98.6229 83.9193 96.6715 83.9193H94.8768V79.5111C94.8768 75.5036 94.842 75.0854 94.5458 74.615C93.9011 73.6567 93.3958 73.465 91.4444 73.465H89.6497V60.3102V47.1553H94.0231C100.557 47.1553 100.139 47.7128 100.069 39.1404C100.017 33.2686 99.9994 32.9375 99.6684 32.4845C99.407 32.1186 93.7617 29.1914 77.9759 21.2462C58.7575 11.5761 56.5273 10.4958 55.6561 10.4261L54.6804 10.3564L33.3538 21.072ZM75.2752 25.968L94.7897 35.795L94.842 38.8616L94.8768 41.9282H55.4993H16.1217L16.1566 38.8616L16.2089 35.795L35.7234 25.968C46.4564 20.5667 55.3599 16.1411 55.4993 16.1411C55.6387 16.1411 64.5422 20.5667 75.2752 25.968ZM31.8031 60.3102V73.465H29.1895H26.576V60.3102V47.1553H29.1895H31.8031V60.3102ZM47.6586 60.3102V73.465H42.3444H37.0302V60.3102V47.1553H42.3444H47.6586V60.3102ZM58.1129 60.3102V73.465H55.4993H52.8857V60.3102V47.1553H55.4993H58.1129V60.3102ZM73.9684 60.3102V73.465H68.6542H63.34V60.3102V47.1553H68.6542H73.9684V60.3102ZM84.4226 60.3102V73.465H81.8091H79.1955V60.3102V47.1553H81.8091H84.4226V60.3102ZM89.6497 81.3057V83.9193H55.4993H21.3489V81.3057V78.6922H55.4993H89.6497V81.3057ZM94.8768 91.7599V94.3735H55.4993H16.1217V91.7599V89.1464H55.4993H94.8768V91.7599Z" fill="black"/>
<path d="M52.938 21.3682C49.6624 22.5356 47.6586 25.3931 47.6586 28.8604C47.6586 33.3731 50.9866 36.701 55.4993 36.701C60.012 36.701 63.34 33.3731 63.34 28.8604C63.34 25.3582 61.3014 22.5007 57.9909 21.3508C56.6841 20.9152 54.2274 20.9152 52.938 21.3682ZM56.7886 26.7521C57.5379 27.2574 57.9386 27.9718 57.9386 28.8604C57.9386 29.749 57.5379 30.4634 56.7886 30.9687C56.475 31.1603 55.9697 31.2997 55.4993 31.2997C54.1054 31.2997 53.06 30.2543 53.06 28.8604C53.06 27.4665 54.1054 26.4211 55.4993 26.4211C55.9697 26.4211 56.475 26.5605 56.7886 26.7521Z" fill="black"/>
</svg>
